<svg xmlns="http://www.w3.org/2000/svg" width="1411" height="701" viewBox="0 0 1411 701">
	<defs>
		<radialGradient id="a" cx="0.5" cy="0.5" r="0.704" gradientTransform="matrix(0.354, 0.935, -1.104, 0.419, 0.875, -0.177)" gradientUnits="objectBoundingBox">
			<stop offset="0" stop-color="#ccc"/>
			<stop offset="1" stop-color="#e8e8e8"/>
		</radialGradient>
		<filter id="b" x="178" y="456" width="392" height="15" filterUnits="userSpaceOnUse">
			<feOffset dy="4" input="SourceAlpha"/>
			<feGaussianBlur stdDeviation="2" result="c"/>
			<feFlood flood-opacity="0.161"/>
			<feComposite operator="in" in2="c"/>
			<feComposite in="SourceGraphic"/>
		</filter>
		<filter id="d" x="178" y="361" width="429" height="15" filterUnits="userSpaceOnUse">
			<feOffset dy="4" input="SourceAlpha"/>
			<feGaussianBlur stdDeviation="2" result="e"/>
			<feFlood flood-opacity="0.161"/>
			<feComposite operator="in" in2="e"/>
			<feComposite in="SourceGraphic"/>
		</filter>
		<filter id="f" x="178" y="322" width="429" height="15" filterUnits="userSpaceOnUse">
			<feOffset dy="4" input="SourceAlpha"/>
			<feGaussianBlur stdDeviation="2" result="g"/>
			<feFlood flood-opacity="0.161"/>
			<feComposite operator="in" in2="g"/>
			<feComposite in="SourceGraphic"/>
		</filter>
		<filter id="h" x="592" y="220" width="436" height="15" filterUnits="userSpaceOnUse">
			<feOffset dy="4" input="SourceAlpha"/>
			<feGaussianBlur stdDeviation="2" result="i"/>
			<feFlood flood-opacity="0.161"/>
			<feComposite operator="in" in2="i"/>
			<feComposite in="SourceGraphic"/>
		</filter>
		<filter id="j" x="803" y="456" width="225" height="15" filterUnits="userSpaceOnUse">
			<feOffset dy="4" input="SourceAlpha"/>
			<feGaussianBlur stdDeviation="2" result="k"/>
			<feFlood flood-opacity="0.161"/>
			<feComposite operator="in" in2="k"/>
			<feComposite in="SourceGraphic"/>
		</filter>
	</defs>
	<g transform="translate(-168 -238)">
		<g transform="translate(102 -26)">
			<g transform="translate(308 264)" stroke="#333" stroke-width="3" fill="url(#a)">
				<rect width="714" height="701" rx="15" stroke="none"/>
				<rect x="1.5" y="1.5" width="711" height="698" rx="13.5" fill="none"/>
			</g>
			<text transform="translate(550 947)" fill="#333" font-size="32" font-family="Roboto-Bold, Roboto" font-weight="700">
				<tspan x="0" y="0">REXUS MODULE</tspan>
			</text>
			<g transform="translate(340 307.416)" fill="#ccc">
				<path d="M 639 581.0838623046875 L 15 581.0838623046875 C 7.556083202362061 581.0838623046875 1.5 576.1404418945312 1.5 570.064208984375 L 1.5 12.51976490020752 C 1.5 6.443431377410889 7.556083202362061 1.500014543533325 15 1.500014543533325 L 639 1.500014543533325 C 646.4439086914062 1.500014543533325 652.5 6.443431377410889 652.5 12.51976490020752 L 652.5 570.064208984375 C 652.5 576.1404418945312 646.4439086914062 581.0838623046875 639 581.0838623046875 Z" stroke="none"/>
				<path d="M 15 3 C 11.694580078125 3 8.61041259765625 4.05487060546875 6.31573486328125 5.9700927734375 C 4.1776123046875 7.7547607421875 3 10.08074951171875 3 12.5196533203125 L 3 570.0640869140625 C 3 572.5031127929688 4.1776123046875 574.8291015625 6.31573486328125 576.61376953125 C 8.61041259765625 578.5289916992188 11.694580078125 579.5838623046875 15 579.5838623046875 L 639 579.5838623046875 C 642.305419921875 579.5838623046875 645.3895263671875 578.5289916992188 647.6842651367188 576.61376953125 C 649.8223876953125 574.8291015625 651 572.5031127929688 651 570.0640869140625 L 651 12.5196533203125 C 651 10.08074951171875 649.8223876953125 7.7547607421875 647.6842651367188 5.9700927734375 C 645.3895263671875 4.05487060546875 642.305419921875 3 639 3 L 15 3 M 15 0 L 639 0 C 647.2842407226562 0 654 5.60528564453125 654 12.5196533203125 L 654 570.0640869140625 C 654 576.9785766601562 647.2842407226562 582.5838623046875 639 582.5838623046875 L 15 582.5838623046875 C 6.71563720703125 582.5838623046875 0 576.9785766601562 0 570.0640869140625 L 0 12.5196533203125 C 0 5.60528564453125 6.71563720703125 0 15 0 Z" stroke="none" fill="#333"/>
			</g>
			<g transform="translate(435 473)" fill="#e8e8e8" stroke="#333" stroke-width="3">
				<rect width="465" height="322" rx="15" stroke="none"/>
				<rect x="1.5" y="1.5" width="462" height="319" rx="13.5" fill="none"/>
			</g>
			<text transform="translate(514 877)" fill="#333" font-size="32" font-family="Roboto-Bold, Roboto" font-weight="700">
				<tspan x="0" y="0">PRINTER MECHANICS</tspan>
			</text>
			<g transform="translate(-655 54)">
				<g transform="translate(1155 655)" fill="pink" stroke="#333" stroke-width="3">
					<rect width="336" height="31" rx="10" stroke="none"/>
					<rect x="1.5" y="1.5" width="333" height="28" rx="8.5" fill="none"/>
				</g>
				<g transform="translate(1269 655)" fill="#1c2e4a" stroke="#333" stroke-width="3">
					<rect width="114" height="31" stroke="none"/>
					<rect x="1.5" y="1.5" width="111" height="28" fill="none"/>
				</g>
			</g>
			<g transform="translate(500 615)" fill="pink" stroke="#333" stroke-width="3">
				<path d="M0,0H336a0,0,0,0,1,0,0V21a10,10,0,0,1-10,10H10A10,10,0,0,1,0,21V0A0,0,0,0,1,0,0Z" stroke="none"/>
				<path d="M3,1.5H333A1.5,1.5,0,0,1,334.5,3V21a8.5,8.5,0,0,1-8.5,8.5H10A8.5,8.5,0,0,1,1.5,21V3A1.5,1.5,0,0,1,3,1.5Z" fill="none"/>
			</g>
			<g transform="translate(500 501)" fill="#f0e74c" stroke="#333" stroke-width="3">
				<path d="M10,0H326a10,10,0,0,1,10,10V116a0,0,0,0,1,0,0H0a0,0,0,0,1,0,0V10A10,10,0,0,1,10,0Z" stroke="none"/>
				<path d="M10,1.5H326a8.5,8.5,0,0,1,8.5,8.5V113a1.5,1.5,0,0,1-1.5,1.5H3A1.5,1.5,0,0,1,1.5,113V10A8.5,8.5,0,0,1,10,1.5Z" fill="none"/>
			</g>
			<path d="M535.329,596.924H799.742V581.569H710.753V521.182H626.078v60.387H535.329Z" fill="#9fffa4" stroke="#333" stroke-linejoin="round" stroke-width="3"/>
			<path d="M797.068,644.9,726.26,710.932H614.58l-77.3-66.348Z" fill="rgba(0,0,0,0.21)" stroke="#333" stroke-width="1"/>
			<g transform="translate(-1)">
				<g transform="translate(660 455)" fill="#9fffa4" stroke="#333" stroke-width="2">
					<rect width="17" height="67" stroke="none"/>
					<rect x="1" y="1" width="15" height="65" fill="none"/>
				</g>
				<path d="M673.191,456.107" transform="translate(2.895)" fill="none" stroke="#707070" stroke-width="1"/>
				<line x1="15.895" y2="7" transform="translate(660.5 456.5)" fill="none" stroke="#333" stroke-width="2"/>
				<line x1="15.895" y2="7" transform="translate(660.5 461.5)" fill="none" stroke="#333" stroke-width="2"/>
				<line x1="15.895" y2="7" transform="translate(660.5 466.5)" fill="none" stroke="#333" stroke-width="2"/>
				<line x1="15.895" y2="7" transform="translate(660.5 471.5)" fill="none" stroke="#333" stroke-width="2"/>
				<line x1="15.895" y2="7" transform="translate(660.5 476.5)" fill="none" stroke="#333" stroke-width="2"/>
				<line x1="15.895" y2="7" transform="translate(660.5 481.5)" fill="none" stroke="#333" stroke-width="2"/>
				<line x1="15.895" y2="7" transform="translate(660.5 486.5)" fill="none" stroke="#333" stroke-width="2"/>
				<line x1="15.895" y2="7" transform="translate(660.5 491.5)" fill="none" stroke="#333" stroke-width="2"/>
				<line x1="15.895" y2="7" transform="translate(660.5 496.5)" fill="none" stroke="#333" stroke-width="2"/>
				<line x1="15.895" y2="7" transform="translate(660.5 501.5)" fill="none" stroke="#333" stroke-width="2"/>
				<line x1="15.895" y2="7" transform="translate(660.5 506.5)" fill="none" stroke="#333" stroke-width="2"/>
				<line x1="15.895" y2="7" transform="translate(660.5 511.5)" fill="none" stroke="#333" stroke-width="2"/>
				<line x1="10" y2="5" transform="translate(666.395 516.5)" fill="none" stroke="#333" stroke-width="2"/>
			</g>
			<g transform="translate(619 419)" fill="#9fffa4" stroke="#333" stroke-width="3">
				<rect width="98" height="37" rx="5" stroke="none"/>
				<rect x="1.5" y="1.5" width="95" height="34" rx="3.5" fill="none"/>
			</g>
		</g>
		<text transform="translate(191 708)" fill="#333" font-size="28" font-family="Roboto-Bold, Roboto" font-weight="700">
			<tspan x="0" y="0">BACKLIGHT</tspan>
		</text>
		<g transform="matrix(1, 0, 0, 1, 168, 238)" filter="url(#b)">
			<line x1="377" transform="translate(185.5 459.5)" fill="none" stroke="#333" stroke-linecap="round" stroke-width="3"/>
		</g>
		<g transform="matrix(1, 0, 0, 1, 168, 238)" filter="url(#d)">
			<line x1="414" transform="translate(185.5 364.5)" fill="none" stroke="#333" stroke-linecap="round" stroke-width="3"/>
		</g>
		<text transform="translate(264 613)" fill="#333" font-size="28" font-family="Roboto-Bold, Roboto" font-weight="700">
			<tspan x="0" y="0">MASK</tspan>
		</text>
		<g transform="matrix(1, 0, 0, 1, 168, 238)" filter="url(#f)">
			<line x1="414" transform="translate(185.5 325.5)" fill="none" stroke="#333" stroke-linecap="round" stroke-width="3"/>
		</g>
		<text transform="translate(168 574)" fill="#333" font-size="28" font-family="Roboto-Bold, Roboto" font-weight="700">
			<tspan x="0" y="0" xml:space="preserve"> BUILD PLATE</tspan>
		</text>
		<g transform="matrix(1, 0, 0, 1, 168, 238)" filter="url(#h)">
			<line x1="421" transform="translate(599.5 223.5)" fill="none" stroke="#333" stroke-linecap="round" stroke-width="3"/>
		</g>
		<text transform="translate(1389 454)" fill="#333" font-size="28" font-family="Roboto-Bold, Roboto" font-weight="700">
			<tspan x="-121.987" y="0">LINIAR DRIVE AND </tspan>
			<tspan x="-189.752" y="37">TRANSMISSION MECHANISM</tspan>
		</text>
		<g transform="matrix(1, 0, 0, 1, 168, 238)" filter="url(#j)">
			<line x1="210" transform="translate(810.5 459.5)" fill="none" stroke="#333" stroke-linecap="round" stroke-width="3"/>
		</g>
		<text transform="translate(1322 690)" fill="#333" font-size="28" font-family="Roboto-Bold, Roboto" font-weight="700">
			<tspan x="-123.02" y="0">PRESSURE SEALED</tspan>
			<tspan x="-94.589" y="37">COMPONENTS</tspan>
		</text>
		<g transform="translate(1168 774)" fill="#9fffa4" stroke="#333" stroke-width="3">
			<rect width="42" height="42" rx="5" stroke="none"/>
			<rect x="1.5" y="1.5" width="39" height="39" rx="3.5" fill="none"/>
		</g>
		<g transform="translate(1168 827)" fill="#f0e74c" stroke="#333" stroke-width="3">
			<rect width="42" height="42" rx="5" stroke="none"/>
			<rect x="1.5" y="1.5" width="39" height="39" rx="3.5" fill="none"/>
		</g>
		<g transform="translate(1168 880)" fill="pink" stroke="#333" stroke-width="3">
			<rect width="42" height="42" rx="5" stroke="none"/>
			<rect x="1.5" y="1.5" width="39" height="39" rx="3.5" fill="none"/>
		</g>
		<text transform="translate(1220 806)" fill="#333" font-size="28" font-family="Roboto-Bold, Roboto" font-weight="700">
			<tspan x="0" y="0">BUILD PLATE ASSEMBLY</tspan>
		</text>
		<text transform="translate(1220 859)" fill="#333" font-size="28" font-family="Roboto-Bold, Roboto" font-weight="700">
			<tspan x="0" y="0">VAT ASSEMBLY</tspan>
		</text>
		<text transform="translate(1220 912)" fill="#333" font-size="28" font-family="Roboto-Bold, Roboto" font-weight="700">
			<tspan x="0" y="0">BACKLIGHT ASSEMBLY</tspan>
		</text>
	</g>
</svg>