<svg xmlns="http://www.w3.org/2000/svg" width="1921.661" height="116.667" viewBox="0 0 1921.661 116.667">
  <g id="Decoration" transform="translate(-0.052 -0.213)" opacity="0.7">
    <path id="Path_2" data-name="Path 2" d="M1509.438-333.776l.058,116.087-1919.159-.91Z" transform="translate(412.052 334.047)" fill="#ce1126"/>
    <path id="Path_5" data-name="Path 5" d="M143.012-329.069l743.894,62.232-806.54-.328Z" transform="translate(496.905 383.41)" fill="#fcd116" opacity="0.99"/>
    <path id="Path_6" data-name="Path 6" d="M-47.2-217.874,623.661-258.9,84.958-143.377Z" transform="translate(1298.052 259.531)" fill="#fff" opacity="0.2"/>
    <path id="Path_7" data-name="Path 7" d="M576.554-277.106l-.164,110.688L281.629-259.275Z" transform="translate(1345.052 277.319)" fill="#fff" opacity="0.33"/>
    <path id="Path_8" data-name="Path 8" d="M472.322-161.288l.007,115.707-538.8-.966Z" transform="translate(1449.052 161.849)" fill="#ce1126" opacity="0.48"/>
    <path id="Path_9" data-name="Path 9" d="M-250,189.012V74.567l640,52.579L327.257,189Z" transform="translate(250.052 -72.8)" fill="#002b7f"/>
    <path id="Path_4" data-name="Path 4" d="M-140.7-302.907,59.655-189.439H-82.633Z" transform="translate(141.052 306.319)" fill="#fff" opacity="0.2"/>
    <path id="Path_11" data-name="Path 11" d="M202.532-62.987l174.733,81.4L-200,18.316Z" transform="translate(200.052 97.812)" fill="#fff" opacity="0.1"/>
    <path id="Path_12" data-name="Path 12" d="M-101.092-46.6h0L250.256-17.363,67.527,10.811Z" transform="translate(792.052 105.562)" fill="#fff" opacity="0.31"/>
    <path id="Path_13" data-name="Path 13" d="M374.129-176.468l-82.063,40.949H60.381Z" transform="translate(516.958 251.73)" fill="#fff" opacity="0.18"/>
    <path id="Path_14" data-name="Path 14" d="M20.245.487l161.9,34.805L-4.261,63.75Z" transform="translate(619.443 31.051)" fill="#fcd116" opacity="0"/>
  </g>
</svg>
