<?xml version="1.0" encoding="utf-8"?>
<svg version="1.1" id="master-artboard" xmlns="http://www.w3.org/2000/svg" xmlns:xlink="http://www.w3.org/1999/xlink" x="0px"
	 y="0px" viewBox="0 0 1400 980" style="enable-background:new 0 0 1400 980;" xml:space="preserve">
<style type="text/css">
	.st0{fill-rule:evenodd;clip-rule:evenodd;fill:#FFFFFF;fill-opacity:0;}
	.st1{fill-rule:evenodd;clip-rule:evenodd;fill:#FFFFFF;}
	.st2{fill:none;}
	.st3{fill-rule:evenodd;clip-rule:evenodd;fill:#0073B0;}
</style>
<rect id="ee-background" y="0" class="st0" width="1400" height="980"/>
<g transform="matrix(-5.573854446411134, 0, 0, -5.573854446411134, 1308.1021892898, 1055.5949994700397)">
	<g id="g-1" transform="matrix(1, 0, 0, 1, 0, 0)">
		<g id="g-2">
			<path class="st1" d="M60,54.5h100v100H60V54.5z"/>
		</g>
	</g>
</g>
<g transform="matrix(7.365627765655518, 0, 0, 7.365627765655518, -2346.3627847496314, -1004.3364903177329)">
	<path class="st2" d="M375.3,245.6h75.2c4.1,0,7.4-3.3,7.4-7.4V163c0-4.1-3.3-7.4-7.4-7.4h-75.2c-4.1,0-7.4,3.3-7.4,7.4v75.2
		C367.9,242.3,371.2,245.6,375.3,245.6"/>
	<path class="st3" d="M375.3,245.6h75.2c4.1,0,7.4-3.3,7.4-7.4V163c0-4.1-3.3-7.4-7.4-7.4h-75.2c-4.1,0-7.4,3.3-7.4,7.4v75.2
		C367.9,242.3,371.2,245.6,375.3,245.6z M402.3,190h12.6v6.3c1.7-3.4,6.6-7,13.1-7c12.4,0,16.7,5.6,16.7,19v24h-13.2v-21.2
		c0-7-1.4-10.9-6.5-10.9c-6.9,0-9.4,5.3-9.4,10.9v21.2h-13.2L402.3,190L402.3,190z M381.1,232.4h13.2V190h-13.2V232.4z M395.8,175.5
		c0,4.5-3.6,8.1-8.1,8.1s-8.1-3.6-8.1-8.1c0-4.5,3.6-8.1,8.1-8.1S395.8,171,395.8,175.5z"/>
</g>
</svg>
