<svg xmlns="http://www.w3.org/2000/svg" width="653.11" height="809.314" viewBox="0 0 653.11 809.314"><g transform="translate(-4.19 11.169)"><path d="M345.56,636.05c-11.17-1-13.82.45-17.58,9.72-1.66,4.1-3.8,8.1-5,12.28-1.88,6.7-8,10-14.45,12.72-7.87,3.28-15.2,0-17.64-7.14-2.3-6.8-2.9-7.12-12.48-6.9-5.16,3.38-6.55,7.94-6,13.12.53,4.88.9,9.77,1.68,14.62,1.9,11.6-8.64,22.42-22.07,22.47-8.58,0-15.14-5.12-15.3-12.3-.14-6.1.1-12.2.1-18.3,0-1.44-.15-2.87-.28-5.22-1.85.5-3.2,1-4.62,1.24-6,1.23-10.44-.67-11.78-5.32-.64-2.22-.32-4.6-.57-6.92-.45-4.18-4-8.42-7.12-8.6-4.06-.23-8.62,4.4-8.9,9.2a49.127,49.127,0,0,0,0,7c1.25,15.27,1.82,30.62,4.14,45.78,1.46,9.57,1.4,19,1.57,28.58a87,87,0,0,1-5.18,31.6c-1.86,5.14-2.38,10.3-6.53,15.08-9.4,10.82-21.7,12.64-33.1,3.6-6.63-5.26-10.63-11.43-12.36-19.4-2.94-13.56-2.38-26.65-.18-40.23,1.95-12,4.67-23.94,6.1-35.9,2-16.95,8-33.44,7.6-50.67-.23-8.9,1.65-17.85,1.86-26.8.1-4.78-1.3-9.6-2.1-14.93-9.34,2.94-9.47,10.44-14.37,15-9.95.32-11-.3-11.17-8.24-.2-7.22,0-14.44,0-21.66-4.32-3-8.6-3.6-13.6-1.4-2.7,1.2-4.27,2.55-4.85,5.14-3,13-5.07,25.9-2.77,39.44,3.65,21.53,3.48,43.32,2.75,65.07-.23,7-4.17,12.82-8.82,18.1-3.63,4.1-9.95,5.44-15.95,4.9-14.8-1.35-25.27-11.44-25.6-24-.18-7,1.25-13.62,3.42-20.46,4.2-13.3,8.24-26.65,11.77-40.12,5.05-19.27,3.32-38.63,3.9-58,.2-7-.17-13.94-.23-20.9-.1-9.26-.75-18.4-3.35-27.53-2.06-7.24-2-14.88-3.06-22.33-.43-3.14-1.23-6.23-1.72-9.36L79.5,482.6c-1.87-13.44-3.33-26.9-7.2-40.13-5.16-17.7-9-35.7-7.17-54,1-10,.83-20.14,4.6-29.94,2.1-5.44,1.83-11.5,3.78-17a238.64,238.64,0,0,1,21.22-44.59c11.86-19.5,27.18-36.6,45.17-52.13a243.189,243.189,0,0,1,46.36-31.5c23.18-12.12,48.32-20.8,74.7-26.83,8-1.83,16.22-2.75,24.37-4,21.8-3.26,43.85-2.45,65.7-1.4a127.522,127.522,0,0,1,27.52,3.87c8.4,2.28,17.33,3.67,26,5.68,17.85,4.14,34,11.07,50.1,18.4a232.868,232.868,0,0,1,33.28,18.84,252.077,252.077,0,0,1,28.93,22.73,249.511,249.511,0,0,1,35.13,40.13c3.86,5.4,6.64,11.35,9.76,17.1,3.2,5.9,7,11.7,9.12,17.9,3.7,11,9.4,21.67,9.76,33.43a100.513,100.513,0,0,0,2.09,16.33c2.52,13,1.8,25.82.18,38.84-1.7,13.8-1.66,27.73-2.56,41.6-3.27,50.44-2.32,100.9-2,151.38a94.259,94.259,0,0,0,1.61,13.74c.9,5.75-2.57,10.1-6.55,14.16-4.15,4.23-9.25,7.14-16.73,4.9-9.84-7.86-8.5-18.17-6.88-28.16,1.9-11.68,5-23.22,7.43-34.84,1-4.7,0-9.25-3.16-16-2.63-1.3-4.67-.57-6,1.48a15.151,15.151,0,0,0-1.14,3.28c-2.74,7.36-5.9,8.65-16,6.17l-2.37-10.7c-.2-.85-.23-1.73-.47-2.57-2.25-8.2-6-9.6-16-5.25a65.515,65.515,0,0,0-.74,7.23l.25,48.78c0,1.74-.24,3.6.35,5.2,3.83,10.44,3,21.16,3.4,31.85.3,8.85-3.24,17.06-5.5,25.4-2.15,7.92-8.74,14.18-16.6,19.1-4.62,2.9-9.64,2.35-14.77.5-8.5-3-12.8-9.2-14.9-15.82a60.53,60.53,0,0,1-1.66-30.1c.93-4.82.8-9.8.8-14.7,0-1.2-1.4-2.38-2.37-3.88-2,4.9-3.23,9.35-5.53,13.4-2.54,4.45-8.12,4.88-12.9,1.78-4.16-2.7-6.2-6-6-10.42a85.514,85.514,0,0,0,0-12.19,11,11,0,0,0-2.64-6.24c-2-2.18-4.7-5.16-8.6-3.58-3.64,1.47-7.54,3.63-7.5,7.67.1,11,.18,22.05.82,33.06.62,10.64,2.78,21.26,2.7,31.88a86.861,86.861,0,0,1-4.14,25.64c-3,9.34-9.4,17.17-20.2,22.23-9.94,4.66-19.32,3.47-27.28-1.9-9.2-6.2-16.44-13.86-15.45-25,1.15-13,2.52-26,1.95-39-.48-9.73.56-20.47-10-28.37Z" fill="#afafaf"/><path d="M557.47,521.38l-2.06,2.85a4,4,0,0,1,4.29-.15l.18-.18a5.711,5.711,0,0,1-2.41-2.52Zm62.03-169.4,37-17a5.25,5.25,0,0,0,.8-.56l-20.44-80.9-16.57.9q-20,1.25-40,2.55a3.578,3.578,0,0,1-.79-.09l-18.6-33.42,33-46.74L535.4,116.6l-47.74,31.78-33-19.6,5.25-57.06-6.23-1.75-39-11.02-35.54-10-4.2,8.47q-2.42,4.9-4.82,9.74l-5,10.1q-1.6,3.2-3.18,6.4l-3,6.13,1.05,2.4,3.25,8,.55,1.42.55,1.4,2.52,6.8.5,1.42.5,1.4a.946.946,0,0,1,.06.15.315.315,0,0,0,.08.26c.08.08.07.2.1.3l.2.58.24.68a2.83,2.83,0,0,0,.11.31l.2.63a.2.2,0,0,0,.05.13,270.482,270.482,0,0,1,11.49,47.44l1.93.47,4.84,1.25,1.9.53q3.38,1,6.73,2l2.9.95q2.695.882,5.36,1.85a213.711,213.711,0,0,1,28.16,12.55q2.477,1.305,4.9,2.71l6,3.54q2.982,1.814,5.9,3.73h0a214.7,214.7,0,0,1,78.08,267l-.45,1A215.118,215.118,0,0,1,147.9,485.45l-2.45-4.08a213.681,213.681,0,0,1-21.12-49.08q-1.78-6.2-3.23-12.56c-25.3-112,42-223.5,151.48-254.25l3.64-1,3.12-.8,4.14-1,.64-.15c.27-.07.53-.1.8-.18v-.1l.22-2.27.48-4.53.22-1.77.23-1.8.26-2a5.775,5.775,0,0,1,.08-.58l.22-1.55q.27-1.82.54-3.6c3.47-21.8,9.7-42.74,20.25-62.2l-2.32-5c-.13-.3-.28-.58-.4-.86q-4-8.83-8.13-17.65l-4.32-9.36a13.865,13.865,0,0,0-.84-1.39l-81,20.48.87,16.56.54,8.7,2,31.6a1.39,1.39,0,0,1-.11.47l-33.4,18.6-46.74-33q-20.53,20-41,39.83-9.62,9.33-19.24,18.7l31.76,47.68-3.78,6.35L85.43,250.23l-57.1-5.2L5.46,325.77l51.7,25.58a294.166,294.166,0,0,0-.53,37.78l-19.88,9.2L5,412.98a7.261,7.261,0,0,0-.81.55l20.45,80.9,16.57-.9q20-1.26,40-2.56a3.579,3.579,0,0,1,.79.09l16.44,29.52a5.08,5.08,0,0,1,1.75,2.34c1.82,5,4.7,9.5,7.3,14.17a3.83,3.83,0,0,1,3.14.09,4.6,4.6,0,0,1,5.13,3.52q.407,1.657.87,3.3c3.82,4.94,7.43,10,10.95,15.16q3.65,3,7.4,5.87c1.1-3.06,5.54-4.9,8.38-2.1a92.508,92.508,0,0,0,20.05,15.4,4.58,4.58,0,0,1,5.77-.65,85.44,85.44,0,0,1,24.75,23c12.22,6,24.68,11.6,37.16,16.93,9.4-2.5,19.12-2.78,28.9-2.8,3.94,0,5.55,3.73,4.55,6.66h4.34a4.54,4.54,0,0,1,4.06,2.17c8.46-6.48,22.93-6,32.83-2a6.15,6.15,0,0,1,3.39,3.77,331.349,331.349,0,0,0,40.62-3.77,5.3,5.3,0,0,1,2.3.11q21.48-4.32,42.67-9.93,5.9-2.4,11.6-5.23a5.1,5.1,0,0,1,3.47-.45l27.64-19.55a4.36,4.36,0,0,1,4.53-.22l3-2.22c2.9-2.73,5.94-5.32,9.14-7.8l.1-.08c.34-.26.66-.53,1-.8a4.13,4.13,0,0,1,5.79.64l4.3-4.3a4.53,4.53,0,0,1,4.48-1.33,115.1,115.1,0,0,1,10.17-6.32l.12-.22a4.45,4.45,0,0,1,4.86-2.35l3.6-1.67a5.42,5.42,0,0,1,5.52.58q1.66-1.5,3.28-3,2.05-2.07,4.15-4.1,1.615-1.657,3.16-3.38a64.907,64.907,0,0,1,7.33-9.27,4.62,4.62,0,0,1,5.17-1l2.5-2a4.3,4.3,0,0,1,1.22-.63c2.92-2.54,5.87-5,8.88-7.47,3.74-3,8.87-.23,8.5,4a3.7,3.7,0,0,1,.42.37,89.15,89.15,0,0,1,17.76-26.54c2.48-2.53,6-1.47,7.85,1a7.2,7.2,0,0,1,1.16,2.25,5.17,5.17,0,0,1,2.82.15l7.84-13.14,57.08,5.2,22.88-80.73-51.3-25.37.5-38.18c4.6-2.25,9.42-4.48,14.24-6.7Z" fill="#afafaf"/><path d="M285.23,150.4l-.3,2.92-.27,3-.2,2.43-.27,3.65v.14l-.14,2.2q-.2,3.55-.35,7.1l-.1,2.7-.07,2.8V195l.1,3.88.12,2.82.07,1.8c.07.6.07,1.42.1,2.1,0,.93.1,1.85.15,2.78l.17,3q.27,4.23.62,8.47l.26,3c1.75,19.88,5.15,39.4,11.47,58.4,1.2,3.6,2.5,7.18,4,10.65a77.648,77.648,0,0,0,3.85,7.82c.7,1.24,1.43,2.44,2.2,3.64l.45.66c.08.14.17.26.25.4l.36.5c.12.15.24.32.36.5a5.935,5.935,0,0,1,.35.48l.4.52.43.56.95,1.14a31.876,31.876,0,0,0,2.88,3l.36.33.38.32a2.689,2.689,0,0,0,.37.3q.414.354.85.68a4.481,4.481,0,0,0,.44.32l.43.3.46.3.42.27.46.27.45.27.93.48a8.115,8.115,0,0,0,.94.43c.14.06.3.13.44.18h.06q.42.18.87.33l-.2.13-.3.2-.66.48-.38.3c-.25.2-.5.42-.75.64l-.37.34-.35.35c-.12.12-.23.24-.36.35l-.4.45a3.467,3.467,0,0,0-.25.29,15.538,15.538,0,0,0-1.24,1.57c-.1.13-.2.27-.3.4a3.833,3.833,0,0,0-.28.42c-.08.14-.37.56-.54.85-.1.14-.17.3-.25.43a1.825,1.825,0,0,0-.13.24,4.359,4.359,0,0,0-.23.42c-.15.27-.27.53-.4.8l-.17.33c-.1.23-.2.47-.3.7q-.505-.383-1-.78a21.271,21.271,0,0,1-.86-.74l-.42-.38a39.42,39.42,0,0,1-3.38-3.52c-.15-.16-.27-.32-.42-.5s-.46-.56-.7-.86l-.5-.66-.47-.6-.4-.56-.42-.57-.4-.6c-.1-.14-.2-.3-.3-.46s-.35-.5-.5-.76a85.063,85.063,0,0,1-7.1-13.44c-1.75-4.06-3.23-8.24-4.65-12.48-7.42-22.26-11.4-45.12-13.46-68.43l-.3-3.55-.7-9.92c-.1-1.16-.15-2.32-.2-3.48l-.18-3.26c0-.82-.07-1.65-.1-2.48,0-.68-.06-1.4-.1-2.1-.06-1.1-.08-2.2-.13-3.3,0-1.53-.1-3.05-.13-4.57v-3.43c0-1,0-1.93-.05-2.88v-10.6l.06-2.8v-1c0-.86,0-1.7.06-2.56l-3.64,1C163.26,196.24,95.92,307.7,121.23,419.74q1.44,6.36,3.23,12.56a214.3,214.3,0,0,0,21.12,49.08l-.27.16c-.25.13-.5.27-.73.42l-.38.24q-.557.336-1.09.71l-.7.5-.67.52-.68.56-.48.42-.34.33c-.27.25-.53.5-.78.76l-.77.8c-.25.27-.54.6-.8.9l-1.13,1.4a225.531,225.531,0,0,1-24.18-56.34q-1.8-6.54-3.24-13.27c-25.3-118.42,47.12-235,162.84-266l4.63-1.18,2.5-.6q2.17-.5,4.38-1Z" fill="#2f5197"/><path d="M449.1,192.7h0l-5.9-3.73-6-3.54-4.9-2.7a213.71,213.71,0,0,0-28.16-12.55l-5.36-1.85-2.9-1-6.73-2-1.9-.53a275.4,275.4,0,0,1-5.8,86c-1.15,4.93-2.37,9.48-3.6,13.63l-.4,1.32a164.545,164.545,0,0,1-5.77,16.19c-6.2,18.08-14.27,27-21.57,31.28l-14.4-5.14-30.3-10.7-1,2.37c.7,1.24,1.43,2.44,2.2,3.64l.45.66c.08.14.17.26.25.4l.36.5c.12.15.24.32.36.5a5.923,5.923,0,0,1,.35.48l.4.52.43.56.95,1.14a31.884,31.884,0,0,0,2.88,3l.36.33.38.32a2.686,2.686,0,0,0,.37.3q.414.354.85.68a4.475,4.475,0,0,0,.44.32l.43.3.46.3.42.27.46.27.45.27.93.48a8.115,8.115,0,0,0,.94.43c.14.06.3.13.44.18h.06q.42.18.87.33l-.2.13-.3.2-.66.48-.38.3c-.25.2-.5.42-.75.64l-.37.34-.35.35c-.12.12-.23.24-.36.35l-.4.45a3.477,3.477,0,0,0-.25.29,15.543,15.543,0,0,0-1.24,1.57c-.1.13-.2.27-.3.4a3.833,3.833,0,0,0-.28.42c-.08.14-.37.56-.54.85-.1.14-.17.3-.25.43a1.828,1.828,0,0,0-.13.24,4.359,4.359,0,0,0-.23.42c-.15.27-.27.53-.4.8l-.17.33c-.1.23-.2.47-.3.7h0q.248.2.51.38l.5.36.54.35q.244.164.5.31c.17.1.35.22.54.32s.358.2.53.31l1.1.56,1.1.5.52.2h.07c.34.15.7.27,1,.38a36.94,36.94,0,0,0,12.9,2.29l-4.17,39q.987-.736,1.93-1.53l-7.76,56.37v.2l-1.65,10.24,19.2-37.35,7.45,41a74.269,74.269,0,0,0,3.06-13.26c.74-4.4,1.38-8.84,2.4-13.18,1-4.16.7-8.63,3.28-12.62,3.8,11.36,6.43,22.94,9.35,34.44l9,35.53a79.908,79.908,0,0,1,6.85-7.92,57.43,57.43,0,0,1,41-17.06c2.63,0,4-.77,5.6-3.26,9.9-15,27.5-23.37,45.9-19.16,16,3.64,26.6,13.55,31.83,28.87,1.26,3.7,3,4.58,6.38,4.87a41,41,0,0,1,14.34,3.85l.45-1a214.608,214.608,0,0,0-78.18-266.95ZM337.7,375.9c.1.26.2.5.3.77l-.08.08-.2-.85ZM467.62,372l-9.8-6.2.6-11.88,9.86,6.37-.65,11.72Zm27.42,20.84-9.8-6.2.6-11.88,9.86,6.37-.65,11.72Zm12.88-30.94-9.8-6.2.6-11.9,9.85,6.38-.65,11.7Z" fill="#ce1127"/><path d="M272.66,165.5C163.2,196.24,95.87,307.7,121.18,419.74q1.44,6.36,3.23,12.56a214.3,214.3,0,0,0,21.12,49.08q.4-.218.81-.4c.5-.25,1-.47,1.54-.68h.16c.26-.1.52-.2.77-.3s.57-.2.85-.28l.4-.12.47-.13.88-.22,1.15-.25c.2,0,.43-.1.64-.12l.86-.13c.5-.06,1.05-.12,1.57-.16h.63a31.224,31.224,0,0,1,3.62,0c5.34.28,5.88.68,6.47,5.86a41.56,41.56,0,0,0,4.47,15.5c-.52-2.8-.9-4.5-1.13-6.23-1.25-9-1-17.76,2.2-26.4a45.8,45.8,0,0,1,69.86-21.63c11.82,8.5,17.56,20.36,19.45,34.45.26,1.92.46,3.84.86,7.2a34.43,34.43,0,0,0,.23-16.49c-1-5.36-.6-6.46,4-9.55,12.8-8.57,28.52-6.5,38.78,5l.62.72,3.56,4.23c5.4-2.54,9.8-5.06,14.53-6.7,5.16-1.8,10.13.6,16,2.83a14,14,0,0,0-8.11-5.87c-3-.87-6.18-1-9.6-1.5,1.82-11.38,4.3-22.2,5.64-33.2-2.73,3.8-2.85,8.7-6.45,13.38,0-2.23,0-3.22.1-4.17l1.65-10.24v-.2l10-93.84a36.9,36.9,0,0,1-12.9-2.29,7.6,7.6,0,0,1-1-.38h-.07l-.52-.2-1.1-.5c-.37-.18-.72-.37-1.1-.56-.17-.1-.36-.2-.53-.3s-.36-.2-.54-.32-.34-.2-.5-.3h0a6.217,6.217,0,0,1-.54-.35l-.5-.36a6.126,6.126,0,0,1-.51-.38h0q-.505-.383-1-.78a21.212,21.212,0,0,1-.86-.74l-.42-.38a39.424,39.424,0,0,1-3.38-3.52c-.15-.16-.27-.32-.42-.5s-.46-.56-.7-.86l-.5-.66-.56-.66-.4-.56-.42-.57-.4-.6c-.1-.14-.2-.3-.3-.46s-.35-.5-.5-.76a85.061,85.061,0,0,1-7.1-13.44c-1.75-4.06-3.23-8.24-4.65-12.48-7.42-22.26-11.4-45.12-13.46-68.43l-.3-3.55-.7-9.92c-.1-1.16-.15-2.32-.2-3.48l-.18-3.26c0-.82-.07-1.65-.1-2.48,0-.68-.06-1.4-.1-2.1-.06-1.1-.08-2.2-.13-3.3,0-1.53-.1-3-.13-4.57v-16.9l.06-2.8v-1c0-.86,0-1.7.06-2.56l-3.72,1.03ZM176.2,346.1l-9.82-6.17.55-11.9,9.93,6.32-.66,11.75Zm43.5,20.58-9.82-6.17.55-11.9,9.93,6.32-.66,11.75Zm-18-63.46-9.82-6.17.56-11.9,9.93,6.32-.68,11.75Zm74.67-59.7c1.18,18.3,3.68,36.33,9.16,53.88,1,3.4,2.35,6.7,3.33,10.1.7,2.4,0,4.34-2.86,4.6-13.46,1.16-22.92,8.17-29.3,19.82-.18.32-.77.44-1.86,1a17.342,17.342,0,0,1-1.13-3.13c-2.37-20.53-3.62-41-1.5-61.74,1.44-14,9.46-23.38,20-31.38.7-.52,1.7-.6,3.35-1.12.3,2.97.67,5.47.8,7.97Z" fill="#2f5197"/><path d="M552.5,324.86a225.42,225.42,0,0,1-15.84,142l-.35-.24-3-2.08a42.706,42.706,0,0,0-6.56-3.84l.45-1a214.7,214.7,0,0,0-78.08-267h0l-5.9-3.73c-1.98-1.2-4-2.4-6-3.54-1.62-.93-3.27-1.84-4.9-2.7a213.7,213.7,0,0,0-28.16-12.55q-4.1-1.5-8.28-2.8c-2.23-.7-4.47-1.38-6.73-2l-1.9-.53c0-.6-.1-1.2-.15-1.8h0q-.509-5.335-1.21-10.65l2,.5c2.38.6,4.74,1.27,7.1,2l7.06,2.2,8.7,3.06a227,227,0,0,1,29.43,13.52q2.6,1.4,5.14,2.9c2.13,1.25,4.22,2.52,6.3,3.83l6.15,4h.05a225.44,225.44,0,0,1,94.7,140.43Z" fill="#ce1127"/><path d="M536.3,466.62l-3-2.08a42.706,42.706,0,0,0-6.56-3.84,41,41,0,0,0-14.34-3.85c-3.33-.3-5.12-1.18-6.38-4.87-5.24-15.32-15.88-25.23-31.83-28.87-18.4-4.2-36,4.12-45.9,19.16-1.64,2.5-3,3.3-5.6,3.26a56.45,56.45,0,0,0-30.61,8.76,55.76,55.76,0,0,0-10.36,8.3,79.911,79.911,0,0,0-6.85,7.92l-9-35.53c-2.92-11.5-5.55-23.08-9.35-34.44-2.57,4-2.32,8.47-3.28,12.62-1,4.35-1.65,8.8-2.4,13.18a74.264,74.264,0,0,1-3.06,13.26h0L339,331.34l-2.13-22.7c-.34-3.13-.58-4.86-.7-4.76a42.769,42.769,0,0,0-.52,4.32l-2.57,23.62-10,94.03-1.65,10.24a39,39,0,0,0-.1,4.17c3.6-4.68,3.72-9.57,6.45-13.38-1.33,11-3.82,21.8-5.64,33.2,3.4.5,6.6.62,9.6,1.5a14,14,0,0,1,8.11,5.87c-5.87-2.22-10.83-4.62-16-2.83-4.7,1.65-9.13,4.16-14.53,6.7l-3.56-4.23q-.3-.367-.62-.72c-10.26-11.52-26-13.6-38.78-5-4.6,3.1-5,4.2-4,9.55a34.31,34.31,0,0,1-.23,16.49l-.86-7.2c-1.9-14.08-7.62-26-19.45-34.45a45.8,45.8,0,0,0-69.86,21.52c-3.16,8.65-3.44,17.45-2.2,26.4.23,1.74.62,3.44,1.13,6.23a41.7,41.7,0,0,1-4.47-15.5c-.6-5.18-1.13-5.58-6.47-5.86a33.616,33.616,0,0,0-3.62,0h-.63a13.463,13.463,0,0,0-1.57.16l-.86.13a3,3,0,0,0-.64.12c-.4.07-.78.16-1.15.25l-.88.22-.47.13-.4.12c-.28.08-.57.2-.85.28l-.77.3h-.16q-.779.32-1.54.68l-.8.4-.27.15c-.25.13-.5.27-.73.42l-.38.24c-.13.08-.26.15-.38.24l-.7.47-.7.5-.67.52-.68.56-.48.42-.34.33c-.27.25-.53.5-.78.76l-.77.8c-.25.27-.54.6-.8.9l-1.13,1.4a226.734,226.734,0,0,0,400-22.25,3.334,3.334,0,0,1-.49-.19Zm-66.4,26.55c-21.78-1.6-38.6,5.5-51.8,21.13A43.992,43.992,0,0,1,469.9,493.17Zm-54.7,48.88a58,58,0,0,0-27-2.3c-.9.15-1.8.33-2.7.52q-13.44,2.94-25.83,13.12l-.25.2.66-.82c11.34-13.8,35.3-22.48,55.13-10.72Zm-65.1-41.8c-1.16-.5-2.3-1-3.46-1.4l-3.42-1.2c-.57-.18-1.13-.35-1.7-.5l-1.7-.47a63.109,63.109,0,0,0-6.73-1.35q-2.159-.316-4.34-.44c-.4,0-.83-.05-1.25-.06-.9,0-1.8-.06-2.68,0a50.583,50.583,0,0,0-5.37.33q-1.05.1-2.1.27l-.7.1a62.891,62.891,0,0,0-22.51,8.64c15.77-14.34,41.96-16.4,55.96-3.93Zm-78.5,22.16a59.893,59.893,0,0,0-8.6-3.82l-1.72-.56q-.855-.271-1.72-.51c-14.32-4-28.6-1.5-42.94,5,17.9-12.83,39.94-12.83,54.98-.1Z" fill="#afafaf"/><path d="M202.4,291.46l-.68,11.75-9.82-6.17.56-11.9Zm-25.52,42.9-.67,11.75-9.82-6.17.55-11.9Zm43.52,20.57-.67,11.75-9.82-6.17.55-11.9Zm275.3,26.2-.65,11.72-9.8-6.2.6-11.88Zm12.9-30.94-.65,11.72-9.8-6.2.6-11.9,9.85,6.37Zm-40.3,10.1-.65,11.72-9.8-6.2.6-11.88Z" fill="#fff"/><path d="M417.06,257.9c4.12,9.3,3.92,19,4.1,28.7v2.5a234.935,234.935,0,0,1-2,32.15c-.64,5-1.45,10-2.38,15-.17.9-.5,1.78-1.06,3.66a49.755,49.755,0,0,1-2.95-4.37c-1.93-3.72-3.76-7.5-5.6-11.27l-.1-.22c-4.2-8.68-11.67-14.23-19-19.92-5.3-4.13-4.86-3.86-2.1-9.55a106.171,106.171,0,0,0,7.62-19.85c3-11.8,3.56-24,3.56-36.12,0-2.3.2-4.6.4-8.24a98,98,0,0,1,15.3,19.38,78.355,78.355,0,0,1,4.21,8.16ZM345.08,7.33c-5.42-5.52-8.8-5.7-14.8-.88-9,7.33-15.42,16.8-21.17,26.7-.65,1.08-1.25,2.16-1.87,3.26q-3.25,5.86-6.12,11.9c-1.6,3.33-3.07,6.7-4.48,10.1a255.473,255.473,0,0,0-15.33,54.55l-.73,4.43-.3,1.92a5.9,5.9,0,0,1-.1.7l-.38,2.5c-.13.83-.2,1.47-.3,2.22l-.3,2.18-.68,5.6-.3,2.8a.69.69,0,0,0,0,.13l-.34,3.42q-.186,1.778-.32,3.56l-.24,2.84c-.13,1.43-.22,2.85-.32,4.27a.994.994,0,0,1,0,.17l-.17,2.58-.4,8.3c0,1.07-.1,2.1-.1,3.16v.73c0,.86,0,1.7-.06,2.56v1c0,.94-.05,1.87-.06,2.8v14.9c0,.65,0,1.32.05,2,0,1.52.07,3,.13,4.57,0,1.1.07,2.2.13,3.3a14.768,14.768,0,0,0,.1,2.1c.1.7.07,1.67.1,2.48,0,1.1.12,2.18.18,3.26l.2,3.48q.3,5,.7,9.92l.3,3.55c2.06,23.3,6,46.17,13.46,68.43,1.42,4.23,2.9,8.42,4.65,12.48a83.4,83.4,0,0,0,7.1,13.44c.16.25.35.5.5.76l.3.46.4.6.42.57q.2.286.41.56l.98,1.27c.23.3.46.58.7.86l.42.5a39.42,39.42,0,0,0,3.38,3.52,4.809,4.809,0,0,0,.42.38c.14.14.3.26.43.38l.43.36c.32.27.66.54,1,.78h0c.17.14.34.26.5.38l.5.36.54.35c.16.1.33.2.5.3s.35.22.54.32.358.2.53.31l1.1.56,1.1.5.52.2H319c.34.15.7.27,1,.38a36.94,36.94,0,0,0,12.9,2.29,37.473,37.473,0,0,0,5.93-.46,56.329,56.329,0,0,0,10.89-2.82q1.14-.48,2.3-1c9-4.58,19.4-14.92,27.26-37.75,1.75-5.1,4.4-11.36,6.76-19q.255-.765.48-1.54,2.345-7.936,4.22-16a320.261,320.261,0,0,0,7.83-84.87q-.24-6.17-.74-12.53l-.28-3.45c0-.7-.12-1.4-.17-2.1h0c-.4-4.1-.87-8.27-1.43-12.48A336.141,336.141,0,0,0,382.6,78.84a.191.191,0,0,0-.06-.16q-.119-.389-.26-.77a1.477,1.477,0,0,1-.12-.4,5.443,5.443,0,0,0-.3-.82,5.468,5.468,0,0,1-.23-.73,3,3,0,0,1-.13-.36c0-.1-.08-.2-.1-.3a1.711,1.711,0,0,0-.07-.21c-.18-.6-.4-1.16-.6-1.74l-.6-1.76-3-8.44-.65-1.77-.67-1.74-.88-2.35-3-7.62a1.113,1.113,0,0,0-.05-.13l-1.2-2.85c-6.25-14.7-14.45-27.94-25.66-39.4Zm-7.57,165.15h-.22c-.48.08-1,.14-1.46.18H334.2a5.241,5.241,0,0,0-.56,0h-1.06l-.66-.06h-.13a3.935,3.935,0,0,1-.7-.1.33.33,0,0,0-.14,0l-.7-.13h-.1l-.73-.17-.77-.22a4.11,4.11,0,0,1-.46-.15l-.3-.1-.75-.28c-.26-.12-.53-.22-.8-.36l-.73-.35-.54-.3a.469.469,0,0,1-.09-.06l-.6-.37-.13-.1a10.2,10.2,0,0,1-1.21-.86h-.07l-.55-.45a.531.531,0,0,0-.11-.09l-.52-.47c-.17-.17-.35-.33-.52-.52l-.6-.66c-.16-.2-.32-.37-.46-.57s-.37-.5-.53-.73a6.507,6.507,0,0,1-.43-.64l-.06-.08-.36-.62a17.76,17.76,0,0,1,7-24.54c8.92-4.83,19.77-1.83,24.53,6.92h0c.1.2.2.42.3.63l.27.57a.14.14,0,0,1,0,.07,5.1,5.1,0,0,1,.24.55c.07.17.18.5.26.73a5.382,5.382,0,0,1,.2.65,17.411,17.411,0,0,1,.66,3.41,2.278,2.278,0,0,0,.05.58v1.33a7.668,7.668,0,0,1-.07,1.28,18.134,18.134,0,0,1-.31,2c-.05.18-.08.37-.13.56a.19.19,0,0,0,0,.09l-.17.6c-.06.2-.15.5-.24.75q-.094.257-.17.52a5.16,5.16,0,0,1-.26.65l-.47,1a6.99,6.99,0,0,1-.4.76,5.957,5.957,0,0,1-.33.6l-.3.47a5.712,5.712,0,0,1-.32.48c-.06.1-.13.18-.18.27l-.37.48-.35.45q-.248.305-.52.59c-.18.2-.28.32-.44.47v.06l-.5.47-.1.08c-.16.17-.32.3-.48.45l-.7.6-.5.38c-.17.13-.33.23-.5.35l-.24.16-.5.32-.66.4-.26.14c-.25.13-.5.27-.75.38s-.44.2-.65.3l-.2.1-.55.23-.27.1h-.05l-.5.18-1,.28-.7.16a2.393,2.393,0,0,1-.72.22Zm-7.86-69.1a8.29,8.29,0,1,1-3.35,11.24,8.29,8.29,0,0,1,3.35-11.24Z" fill="#fdd116" stroke="#000" stroke-miterlimit="10" stroke-width="6"/><path d="M340.9,106.7a8.3,8.3,0,1,1-7.1-4.6A8.3,8.3,0,0,1,340.9,106.7Zm9.5,39.84h0l.3.63.27.57a.141.141,0,0,1,0,.07,5.1,5.1,0,0,1,.24.55l.26.73.2.65a17.41,17.41,0,0,1,.66,3.41v1.9a7.668,7.668,0,0,1-.07,1.28,18.141,18.141,0,0,1-.31,2,2.377,2.377,0,0,1-.13.56.19.19,0,0,0,0,.09l-.17.6-.24.75-.17.52a5.16,5.16,0,0,1-.26.65l-.47,1a6.99,6.99,0,0,1-.4.76l-.33.6-.3.47a5.719,5.719,0,0,1-.32.48l-.18.27-.37.48-.35.45-.52.6-.44.47-.05.06-.5.47-.1.08c-.16.17-.32.3-.48.45l-.7.6-.5.38-.5.35-.24.16-.5.32-.66.4-.26.14-.75.38-.65.3-.2.1-.55.23-.27.1-.5.18-1,.28-.7.16a5.529,5.529,0,0,1-.72.15h-.22l-1.46.18h-1.63a5.237,5.237,0,0,0-.56,0h-1.06l-.66-.06h-.13a3.935,3.935,0,0,1-.7-.1.33.33,0,0,0-.14,0l-.7-.13h-.1l-.73-.17-.77-.22a4.11,4.11,0,0,1-.46-.15l-.3-.1-.75-.28-.8-.36-.73-.35-.54-.3a.469.469,0,0,1-.09-.06l-.6-.37-.13-.1a10.2,10.2,0,0,1-1.21-.86h-.07l-.55-.45a.531.531,0,0,0-.11-.09l-.52-.47-.52-.52-.6-.66-.46-.57-.53-.73a6.514,6.514,0,0,1-.43-.64l-.06-.08-.36-.62a17.76,17.76,0,0,1,7-24.54c8.95-4.76,19.8-1.76,24.58,7Z" fill="#fff" stroke="#000" stroke-miterlimit="10" stroke-width="6"/><path d="M275.57,235.57l.85,8c1.18,18.3,3.68,36.33,9.16,53.88,1,3.4,2.35,6.7,3.33,10.1.7,2.4,0,4.34-2.86,4.6-13.46,1.16-22.92,8.17-29.3,19.82-.18.32-.77.44-1.86,1a17.338,17.338,0,0,1-1.13-3.13c-2.37-20.53-3.62-41-1.5-61.74,1.44-14,9.46-23.38,20-31.38.65-.55,1.67-.62,3.3-1.15Z" fill="#fdd116" stroke="#000" stroke-miterlimit="10" stroke-width="6"/><path d="M349.55,501.63l8.52,3.68-6.93-6.18c-14.42-12.85-41.5-11-58,3.9l1.8,2.4c17.76-10.73,35.6-12,54.62-3.8ZM470.4,491.7a45.546,45.546,0,0,0-53.58,21.86l-6.7,12.5,9.17-10.83c13-15.4,29.58-22.14,50.56-20.6l13.12,1ZM215.78,521.3l1.5,2.6c19.76-8.94,37.3-9,53.64-.15l12.64,6.84-11-9.3c-15.5-13.2-38.33-13.2-56.77.02ZM358.2,552.7l-8.37,10.76,10.5-8.68c16.72-13.82,34.53-17.5,54.44-11.27l12.33,3.86-11.12-6.58c-20.52-12.16-45.98-3.3-57.8,11.9Z" fill="#fff"/></g></svg>