<?xml version="1.0" encoding="utf-8"?>
<svg id="master-artboard" viewBox="0 0 1110.8372802734375 512.7033386230469" version="1.1" xmlns="http://www.w3.org/2000/svg" x="0px" y="0px" style="enable-background:new 0 0 1400 980;" width="1110.8372802734375px" height="512.7033081054688px" xmlns:xlink="http://www.w3.org/1999/xlink"><defs><path id="B" d="M125.1 140.1h2.2l4.5 6.8-.1-6.8h1.6l.1 9.1h-2.1l-4.6-7 .1 7h-1.6l-.1-9.1z"/><path id="C" d="M219.3 141.1c-.4-.5-1-.7-1.6-.7-.8 0-1.5.4-1.5 1.2 0 1.8 4.4.7 4.4 4 0 2-1.5 2.9-3.3 3-1.1 0-2.3-.3-3-1.2l1.2-1.2c.4.6 1.1.9 1.8.9.8 0 1.6-.4 1.6-1.3 0-2-4.3-.8-4.4-4.1 0-1.9 1.7-2.8 3.3-2.8 1 0 1.9.3 2.6.9l-1.1 1.3z"/></defs><rect id="ee-background" x="0" y="0" width="1110.8372802734375" height="512.703369140625" style="fill: white; fill-opacity: 0; pointer-events: none;"/>


<g transform="matrix(4.034581661224365, 0, 0, 4.034581661224365, -167.15313720703125, -151.3768310546875)"><path d="M273.2 56.4c-4.2 4.2-26.9 41-31.6 41-3.3 0-8.3-9.6-11.2-14.5-10.1-16.9-21-33.1-39.7-33.1-8.9 0-18.1 4.7-24 11.5-5.1-7.1-10.8-11.5-23.7-11.5-12 0-23.3 5.9-27.2 16.2-1.2-7.4-3.7-14.5-17.1-15.8C75 47.9 59.1 66.5 54.6 87.4c-2.8 13.2 5.7 28.6 23.6 28.6 10.6 0 18.9-4.3 21.6-9.7 0 0-2.3 26.3-25.3 26.3-13.2 0-22.2-8.7-22.2-8.7l-2.2 9.1c-2.1 8.8 8.9 16.2 21.8 16.2 18.8 0 35.2-12 40.2-23.8 5-11.9 12.5-43.6 12.5-43.6C127 71.7 133.7 66 140.8 66c8.1 0 12.5 5.2 9.6 17.4l-6.8 28.5c-2.1 8.8 2.2 13.4 10.2 13.4h4.9l10.4-44c2.4-10.1 8.7-15.3 16.1-15.3 8.1 0 12.3 5.2 9.4 17.4l-6.8 28.5c-1.9 7.9 1.4 13.4 11.4 13.4h2.2s2.4-38.1 11.4-38.1c7.5 0 15.7 27 24.2 36.6 0 0 3.1 3 6.1 0 2.5-2.6 48.2-65.1 53.4-69.4-4.5-3.7-15.3-5.9-23.3 2zM105 83.3c-2.8 11.8-11 18.6-20.2 18.6-8.8 0-13-7.1-10.7-16.7 2.6-11.1 11.6-19 21.1-19 8.1-.1 12.6 5.6 9.8 17.1zM304.5 51c2.6 0 4.8 2.2 4.8 4.8s-2.2 4.8-4.8 4.8-4.8-2.2-4.8-4.8 2.2-4.8 4.8-4.8zm0 8.8c2.2 0 4-1.8 4-4s-1.8-4-4-4-4 1.8-4 4c.1 2.2 1.8 4 4 4zm-1.8-6.8h2.1c1.3 0 1.9.6 1.9 1.7 0 1-.6 1.4-1.3 1.5l1.4 2.3h-1.1l-1.4-2.2h-.7v2.2h-1V53zm1 2.4h.7c.6 0 1.3 0 1.3-.8 0-.7-.7-.8-1.3-.8h-.7v1.6z" fill="#e30613"/><path d="M120.7 140.1h1.6l.1 9.1h-1.6l-.1-9.1z"/><use xlink:href="#B"/><use x="11" y="-0.1" xlink:href="#B"/><path d="M151.5 139.6c2.9-.1 4.9 1.8 4.9 4.7s-2 4.8-4.8 4.9c-2.8 0-4.9-1.9-4.9-4.7 0-2.9 2-4.9 4.8-4.9zm.1 8.1c1.9 0 3.1-1.5 3.1-3.4 0-1.8-1.3-3.3-3.2-3.2-1.9 0-3.1 1.5-3.1 3.3 0 1.9 1.3 3.4 3.2 3.3zm5.6-7.9h1.9l2.6 6.9 2.5-6.9h1.8l-3.6 9.2H161l-3.8-9.2zm12.6-.1h1.4l4 9.1h-1.9l-.9-2.1h-4l-.8 2.1h-1.8l4-9.1zm2.1 5.6l-1.4-3.7-1.4 3.7h2.8zm6-4.3h-2.8v-1.5l7.2-.1v1.5h-2.8l.1 7.7H178l-.1-7.6zm6.3-1.5h1.6l.1 9.1h-1.6l-.1-9.1z"/><use x="63.5" y="-0.6" xlink:href="#B"/><path d="M207.8 147.8c-1.1.6-2.4.9-3.8.9-2.8 0-4.9-1.9-4.9-4.7 0-2.9 2-4.9 4.8-4.9 1.4 0 2.7.3 3.6 1.1l-1.2 1.2c-.6-.6-1.5-.9-2.4-.9-1.9 0-3.1 1.5-3.1 3.3 0 2 1.3 3.4 3.2 3.4.8 0 1.6-.2 2.1-.5v-2.2h-1.9V143h3.5l.1 4.8z"/><use xlink:href="#C"/><path d="M227.1 138.8c2.9-.1 4.9 1.8 4.9 4.7s-2 4.8-4.8 4.9c-2.8 0-4.9-1.9-4.9-4.7 0-2.9 2-4.8 4.8-4.9zm.1 8.2c1.9 0 3.1-1.5 3.1-3.4 0-1.8-1.3-3.3-3.2-3.2-1.9 0-3.1 1.5-3.1 3.3.1 1.9 1.3 3.3 3.2 3.3zm7.1-8h1.6l.1 7.7h3.9v1.5l-5.5.1-.1-9.3zm14.6 5.7c0 2.2-1.6 3.6-3.6 3.6-2.1 0-3.7-1.3-3.7-3.6l-.1-5.8h1.6l.1 5.7c0 .9.5 2.1 2.1 2.1s2-1.2 2-2.1l-.1-5.7h1.6l.1 5.8zm4.6-4.4h-2.8v-1.5l7.2-.1v1.5h-2.8l.1 7.7h-1.6l-.1-7.6zm6.2-1.5h1.6l.1 9.1h-1.6l-.1-9.1zm8.7-.4c2.9-.1 4.9 1.8 4.9 4.7s-2 4.8-4.8 4.9c-2.8 0-4.9-1.9-4.9-4.7 0-2.9 2-4.8 4.8-4.9zm.1 8.2c1.9 0 3.1-1.5 3.1-3.4 0-1.8-1.3-3.3-3.2-3.2-1.9 0-3.1 1.5-3.1 3.3.1 1.9 1.4 3.3 3.2 3.3z"/><use x="150.5" y="-1.5" xlink:href="#B"/><use x="71.8" y="-0.7" xlink:href="#C"/></g></svg>