<svg xmlns="http://www.w3.org/2000/svg" viewBox="0 0 1704.16 1614.7" height="1704.16px" width="1614.7px"><defs><style>.cls-1,.cls-6{fill:#1b9bd7;}.cls-1,.cls-2,.cls-3{stroke:#000;stroke-width:20px;}.cls-1,.cls-2,.cls-3,.cls-8{stroke-miterlimit:10;}.cls-2,.cls-5,.cls-8{fill:#d81e37;}.cls-3,.cls-7{fill:#f7eff1;}.cls-4{opacity:0.2;}.cls-7{opacity:0.5;}.cls-8{stroke:#020202;stroke-width:3px;}.cls-9{fill:none;}.cls-10{fill:#231f20;}</style></defs><title>2space logo-final</title><g id="text_copy_2" data-name="text copy 2"><path d="M1594,717q.49,25,1,50c0,6.84-.16,16.9-1,29-2.3,33.15-9.28,76.45-34,140-21.46,55.18-45,115.57-99,182-10.74,13.2-58.92,71.17-140,123-51.1,32.67-94.36,49.53-109,55a549.92,549.92,0,0,1-197,35l-82-2a543.26,543.26,0,0,1-104-20c-15.24-4.51-84.19-25.66-162-79-81.7-56-130-117.9-149-144-42.83-58.83-64.66-111.4-73-133a585.69,585.69,0,0,1-37-166c-3.94-53,.27-95,3-121,2.52-24,5.59-53.18,15-90,3.47-13.58,21-79.9,69-157a601.87,601.87,0,0,1,70-92c22.81-24.37,79.26-80.28,169-124,30.94-15.07,116.39-53.33,234-59a605.92,605.92,0,0,1,406,130c39,30.77,113,90.46,161,193,41.18,87.94,51.75,182.84,57,230C1592.93,705.35,1593.58,712.28,1594,717ZM523,426c3.18,4.35,6.16,8.38,9.11,12.44,5.29,7.27,8.68,15.32,8.11,24.4a153.41,153.41,0,0,1-2.9,21.77C534,500.41,538.78,513.36,551,523.2a150.74,150.74,0,0,0,23.6,15.25c11.19,6,11.53,5.6,9,17.95-1.3,6.49-.52,11.69,5.58,15.65,7.42,4.81,13.06,11.21,13.82,20.57,1.39,16.94,9.45,29.37,24.6,37.16a22,22,0,0,1,2,1.52c6.31,4.22,8.86,10.4,9,17.7a58.09,58.09,0,0,1-10.46,34.84c-7.3,10.47-14.49,21-22.13,31.26-10.62,14.2-12.63,30.22-10.59,47.1.92,7.62,3.88,15.18,3.69,22.7s.31,14.85,4.46,21c14.4,21.41,29.26,42.54,51,57.41,4.34,3,5.95,5.44,4.51,11.07-3.76,14.73-2.57,28.66,9.76,39.77,1.18,1.06,1.5,3.81,1.23,5.63-2.61,17.78-5.23,35.57-8.29,53.27-1.9,11-3.84,21.79-.25,32.84a34.57,34.57,0,0,1,2,12.52c-.41,6.64-2,13.21-3,19.83-2.07,14.28-5.1,28.57-1.57,43,2.31,9.46,5.66,18.7,7.32,28.25,3.09,17.84,4.15,35.86,16.51,51,12.77,15.68,25,31.6,43.91,40.35,3,1.38,6.45,1.7,10.55,2.73-3.08-16.31-5.33-31.21-8.82-45.82-3.08-12.89-3.54-24.93,4-36.55,2.59-4,3.61-8.94,6.07-13a115.58,115.58,0,0,1,11.08-15.69c14-16.3,32.89-26.36,50.09-38.61a51.42,51.42,0,0,0,11.78-11.82c13.49-18.87,26.64-38,39.76-57.12a20.43,20.43,0,0,1,13.14-8.73,108.68,108.68,0,0,0,17.94-5.37c8.61-3.59,17.57-6.69,23.67-14.64,14.31-18.65,27.25-38,33.66-61a52.11,52.11,0,0,1,4.48-11.65c2.3-4,4.85-8.44,8.43-11.19,14.47-11.11,22.26-25.69,24.63-43.53,1.18-8.83-.69-16-7.59-22.56C954,791.51,935.85,781,915.19,776.77c-13.24-2.69-19.71-9.61-26.23-20.33-9-14.74-17.38-29.62-25.37-44.94-13.35-25.61-36.32-40.87-62.66-51.51-4.48-1.82-9.2-4.51-12.27-8.11-10-11.77-22.78-18.31-37.09-23.43-12.07-4.3-24.2-9.62-34.69-16.83-14.51-10-21.72-9.93-31.55,4.54-5.22,7.69-11.84,13.91-21.41,13.28-15.77-1-28.58-8.74-38.17-21.23a17.87,17.87,0,0,1-3.38-9.9c-.23-11.08-.11-22.21.64-33.27.31-4.43,0-7.07-4.21-9.58-9.45-5.66-9.43-11.92-.75-18.62a124.15,124.15,0,0,0,13.41-11.29c3.34-3.43,4.85-7.92,1.94-12.64s-6.66-7.48-12.48-6.36c-3.69.71-7.36,1.61-11.09,2.06-11.1,1.32-21.93-3.3-23-16.35-1.28-15.9,1.33-30.42,13-42.83,17.81-18.84,38.78-30.58,65-30.81,23.25-.19,34.77,10.34,39.64,32.3,1.66,7.5,6,14.51,9.76,21.35.93,1.69,4.81,2.79,7,2.39,1.66-.31,3.69-3.29,4-5.34q4.2-24.74,7.69-49.6c.53-3.81,2.45-5.24,5.66-6.31a165.67,165.67,0,0,0,49.55-26.32c4.69-3.62,8.76-6.62,14.87-3.52,1.29.65,3.41.39,4.89-.15,6.82-2.46,13.44-5.56,20.35-7.71,13.44-4.17,26.86-8.65,40.6-11.47,10.12-2.08,20.74-1.68,31.13-2.48,5.16-.4,8.67-3,11.52-7.51,7.65-12.07,12.79-12.9,24.33-4.72,10,7.05,20.79,6.5,27.49-2,8.79-11.11,10.34-24.44,11.35-38.26-2.55.69-4.35,1.47-6.19,1.62a61,61,0,0,1-7.14-.23c.45-2.18.45-4.6,1.44-6.5,2.48-4.82,5.71-9.26,8.08-14.12,3.4-7,2-10.81-3.86-15.87-5-4.34-9.63-9.16-14.28-13.91-3.19-3.25-6.83-5.5-11.14-3.17a74.83,74.83,0,0,0-13.83,9.32c-7.28,6.44-14.57,10.75-24.11,4.69-3-1.89-5.3-1-6.55,2.06-5.92,14.64-18.85,20.65-32.15,26-7.23,2.91-13.8-.08-14.59-7.81A77.68,77.68,0,0,1,852,264.91c1-4,7.38-6.76,11.5-9.84,3.35-2.49,7.07-4.48,10.45-6.94,5.74-4.18,11.25-8.71,17-12.81,4.07-2.88,7.75-3,11.4,1.56,1.7,2.1,5.3,3.57,8.1,3.66,3.83.13,7.76-1.14,11.56-2.11,14-3.6,27.68-5.63,38.64,7.18,2,2.34,4.06,4.64,6.12,7l35.78-29.73-10.35-23.05c6.67,0,12.46-.16,18.25,0,5.42.19,7,2.51,5.14,7.74s-3.36,10.9-6.14,15.71c-8.84,15.33-6.87,30.89-1.81,46.58,4.23,13.13,10.24,25.23,21.92,33.52,6.95,4.93,7.62,4.69,13-1.76,12.6-15.15,25.22-30.29,38.08-45.22a18.46,18.46,0,0,1,8.14-5.28c4.75-1.46,10-1.39,14.72-2.91a18.42,18.42,0,0,0,8.77-5.72c4.65-6.15,8.53-12.89,12.56-19.49a24.61,24.61,0,0,1,10.75-9.58c5.42-2.73,9.43-8.36,13.81-13,1.31-1.38,1.8-3.54,2.71-5.44,3.88,2.61,7.19,6.56,10.54,6.6s6.93-3.76,11.51-6.55C966,124.82,683.53,183.07,523,426Zm777.34,794c10.89-1.79,71.16-48.38,105.66-83.74,91-93.25,144.76-204.64,160.12-334,25.55-215.11-76.22-429.39-260-545-.48,1.43-1,2.76-1.35,4.12-2.73,10.82-5.14,13.11-16.43,14.78-7.42,1.09-14.88,1.88-23,2.88-1.45,16.09-2.29,31.85,4,47.11,3,7.39,7.67,11.92,16.46,12,4.63.06,11-.68,13.26,5.09,4.68,11.84,13.11,17,25.57,16.45,1.43-.07,2.88.72,4.32.71,4.22-.05,4.85,2,4,5.65-2.65,10.89-2.31,21.45,3.39,31.54a7,7,0,0,1-.32,6.14c-3.59,5.39-7.1,11.1-11.81,15.42-9.36,8.57-19,16.38-33.34,15.88-14.19-.5-26.38,6.34-38.82,14.57,8,13.34,15,26.75,23.67,38.9,9.93,13.83,23.77,19.31,40.85,13.65,4-1.31,8-2.17,12.11-3.12,9.47-2.22,9.19-2.22,10.24-11.66,1.2-10.76,3-21.46,4.45-31.75,11.53,5.38,22.36,10.66,33.42,15.4,2.09.89,5.58.36,7.6-.86,3.82-2.3,5.52-1.2,6.14,2.56a66.71,66.71,0,0,1,1.25,12.41c-.18,6.61,3,10.83,8.65,13.2,5.88,2.45,9.94-1.09,13.61-5.13,1.78-2,3.59-3.88,6.21-6.7a82.86,82.86,0,0,1,4.32,7.7c1.94,4.6,3.34,9.44,5.43,14,3.32,7.18,7,7.54,12,1.46,2.39-2.9,4.66-5.9,7.92-10,1.14,4.31,1.76,6.69,2.4,9.07,2.93,11,8.57,15.77,19.84,16.75,20.91,1.83,37.76,21.19,37.06,42.2-15.24-.57-30.48-1-45.7-1.84-2.07-.11-4.28-1.56-6.06-2.89-9.89-7.39-20.34-14.23-29.34-22.61-14.11-13.12-30.63-17.1-49.11-16.52-5,.16-10.3.13-14.9-1.46-24.44-8.41-48.5-7.46-73.35-.92-18.27,4.81-33.11,12.75-43.25,28.94-3.67,5.86-9.29,9-16,11.17-16.81,5.28-28.79,16.35-36.35,32.35-2.78,5.87-5.1,11.19-1.38,17.7,1.4,2.45,1.19,6.23.74,9.27-1.38,9.26-2.69,18.59-5,27.64-6.57,25.76-13.81,51.43-11.61,78.39.43,5.33,1.9,12.06,5.46,15.38,17.6,16.41,35.48,32.64,54.41,47.46,16.15,12.64,34.8,19.17,56.2,17,13.91-1.42,28.06-.78,42.09-.52,7.42.14,14.15,2.39,19.5,8.49,1.81,2.06,6.23,2.31,9.49,2.43,2.08.08,4.2-1.65,6.34-2.47,6-2.28,7.59-1.34,9.4,4.69,4.84,16.12,1.72,31.3-4.52,46.4-4.94,11.94-10.7,24.16-8.16,37.45,2,10.57,5.78,20.86,9.35,31.07,6.75,19.31,2.48,36.16-10.61,51.22-4.67,5.38-10.1,10.17-14.36,15.84-13.39,17.82-22.88,36.55-17.49,60.3,7.91,34.83,7.39,25.58-7.65,59.64q-10.1,22.86-20.14,45.76c-2.83,6.44-2.19,12,2,18.19,2.45,3.62,3.52,9.95,2.14,14C1308.58,1206.77,1303.77,1213.61,1300.29,1220Z" transform="translate(-96.32 -143.29)"/><path class="cls-1" d="M1531.57,536.27c-116.55,102.81-280,212.09-471.68,309.65-201.8,102.69-399.81,174.51-562.66,209.7-191.31,41.33-334.1,32.12-377.54-37C62.23,927.21,194.24,755.7,434.42,583.75A482.73,482.73,0,0,0,408.25,668C301,744.15,245.26,814.09,266.48,859.6c15.68,33.61,71.15,49.17,153.47,48.27,139.68-1.51,356.62-50.43,587.52-139,218.74-83.9,400.63-184.44,502.91-271.17Q1521.84,516.49,1531.57,536.27Z" transform="translate(-96.32 -143.29)"/></g><g id="Layer_14" data-name="Layer 14"><path class="cls-2" d="M1078.27,876.54Q1033.06,800.23,987.83,724l69.74-59.59a209.64,209.64,0,0,0-86.75-4.81c-75.09,11.81-120.23,62-133.43,77.84A906.73,906.73,0,0,1,910,636.64c47.18-56.85,73-88,112-106.76,75.07-36.22,159.73-7.68,199.75,9.45a692.05,692.05,0,0,1,83.75-61C1350.52,450.4,1448.87,391,1587,380.12c45.15-3.56,116.14-3.62,201,20.27-26.27,88-66.79,146.9-94.42,180.75-86,105.31-197.79,152.84-267.93,182.66-30.78,13.08-56.93,22.12-74.69,27.83-20,65-61.75,159-142.15,186.59-31.94,10.95-75.45,13.27-145.12,17-38.49,2.06-70.52,2.2-92.78,1.93,33.68-7.9,93.95-27.14,150.1-77.49a332.89,332.89,0,0,0,60.69-72.54Z" transform="translate(-96.32 -143.29)"/><path class="cls-3" d="M1078.27,876.54Q1033.06,800.23,987.83,724c103.81-87.89,197.35-160.09,275.3-217.34,65.66-48.22,122.59-87.54,207.23-110.11a505,505,0,0,1,126.23-16.91l101.78,195.52c-7.62,9.9-19,24-34,40-53.28,56.86-123.87,107.38-302.33,174.3A2450.89,2450.89,0,0,1,1078.27,876.54Z" transform="translate(-96.32 -143.29)"/><path class="cls-4" d="M1460.15,449.27s-153.4,55.31-291,182.65c-33.32,30.85-62.05,62.87-80.39,110.15-19.53,50.35-18.93,96.47-16.17,124.53L987.83,724c44.23-38.43,107.69-91.58,187-151.28,112.74-84.84,169.11-127.26,233-154.46,62.79-26.74,188.84-64.56,380.18-17.82C1709.12,396.75,1591.36,402,1460.15,449.27Z" transform="translate(-96.32 -143.29)"/><circle class="cls-5" cx="1375.02" cy="421.5" r="92.69"/><circle class="cls-6" cx="1471.35" cy="564.79" r="77.24" transform="translate(622.03 1806.01) rotate(-82.46)"/><path class="cls-7" d="M1453.58,639.57c20.1-67.74,26-93.63,23.52-94.48-2.24-.77-10.11,19.65-13.49,18.68-4-1.15.75-31.27,10-75.8a80.06,80.06,0,0,1,30.53,7.19c-8.31,37.74-12.89,65.28-8.81,66.55,3.37,1,10.71-16.47,13.08-15.62,2.74,1-2.68,25.82-23.52,94.48a79.82,79.82,0,0,1-31.35-1Z" transform="translate(-96.32 -143.29)"/><path class="cls-2" d="M1299.24,659c4.41,8.68-50.9,46.87-90.65,70.85-43.3,26.11-78.06,41.36-148.11,70.49-44.92,18.67-97.06,40-155.37,63.32,46.18-32.79,86.85-59.11,119-79,14.23-8.82,3.21-1.77,128.45-73.17A487,487,0,0,1,1250.28,668C1269.05,662,1296.36,653.38,1299.24,659Z" transform="translate(-96.32 -143.29)"/><path class="cls-8" d="M1540.62,824.15" transform="translate(-96.32 -143.29)"/><path class="cls-9" d="M1106,1453.5h-17q-11,0-11,14v116h39v-116Q1117,1453.51,1106,1453.5Z" transform="translate(-96.32 -143.29)"/><path class="cls-9" d="M936.66,1451.5H909.51v128q23.19-7,31.6-25.61,7.89-16,7.9-50.69v-33.63c0-7-.67-11.79-2-14.31S942.26,1451.5,936.66,1451.5Z" transform="translate(-96.32 -143.29)"/><path class="cls-10" d="M759.51,1404h-29q-34,0-47,17t-13,56.5V1522q0,35,10.75,48.75T722,1584.5h34.5c6.32,0,9.5,3,9.5,9v47q0,66-21,66t-21-70V1619h-53.5v15q0,61,22.5,91.5,24,32.49,52,32.5,28.5,0,50.5-30,24-33,24-86v-46q0-32-9.75-46.5T776,1535H734c-6.68,0-10-2.33-10-7v-60.5q0-14,10.5-14H755q11,0,11,14V1503h53.5v-25.5q0-39.49-13-56.5T759.51,1404Z" transform="translate(-96.32 -143.29)"/><path class="cls-10" d="M1462,1451.5h56V1404h-65q-34,0-47,17t-13,56.5v196q0,39.49,13,56.5t47,17h65v-47.5h-56q-9,0-11.5-2-4-2.51-4-11.56V1584h64v-48.5h-64v-70.43Q1446.49,1451.51,1462,1451.5Z" transform="translate(-96.32 -143.29)"/><path class="cls-10" d="M541,1682a13.26,13.26,0,0,1,2-7.5l85.5-136.5q7-11,7-25.5v-52q0-56.51-59.5-56.5H547q-34,0-46.75,16.75t-12.75,56.75v51H541v-63q0-12,9.89-12h20.25q10.86,0,10.86,14v38.56a35.13,35.13,0,0,1-4.35,17l-82,130q-8.14,12.5-8.14,25V1747H639v-48.5H541Z" transform="translate(-96.32 -143.29)"/><path class="cls-10" d="M1110.51,1404h-26q-34,0-47,17t-13,56.5V1747H1078V1638h39v109h53.5V1477.5q0-39.49-13-56.5T1110.51,1404Zm6.5,179.5h-39v-116q0-14,11-14h17q11,0,11,14Z" transform="translate(-96.32 -143.29)"/><path class="cls-10" d="M1297,1404h-28.5q-34,0-47,17t-13,56.5V1642q0,53,21.5,81.5,23.49,31,53,31,29,0,52.5-31,21.49-28,21.5-81.5v-43h-53.5v38.5q-1,64.5-20.5,64.5-21,0-21-64.5v-170q0-14,11-14h20q10.5,0,10.5,14V1510H1357v-32.5q0-39.49-13-56.5T1297,1404Z" transform="translate(-96.32 -143.29)"/><path class="cls-10" d="M942.51,1404H856v343h53.5V1634q93-21.49,93-120v-36.5q0-39.49-13-56.5T942.51,1404Zm6.5,99.2q0,34.63-7.9,50.69-8.4,18.58-31.6,25.61v-128h27.15q8.4,0,10.37,3.76c1.31,2.52,2,7.28,2,14.31Z" transform="translate(-96.32 -143.29)"/></g></svg>