<svg xmlns="http://www.w3.org/2000/svg" width="1921.762" height="217.259" viewBox="0 0 1921.762 217.259"><g transform="translate(0 0.375)" opacity="0.7"><path d="M1509.71-334.568v216.135l-1921.762-.137Z" transform="translate(412.052 334.194)" fill="#ce1126"/><path d="M141.7-329.069,870.087-213.895l-790.206-.68Z" transform="translate(485.132 429.905)" fill="#fcd116" opacity="0.99"/><path d="M-47.2-217.874H649.234L82.227-79.637Z" transform="translate(1272.209 295.173)" fill="#fff" opacity="0.2"/><path d="M609.44-277.319,610-71.53,281.629-243.837Z" transform="translate(1311.444 277.319)" fill="#fff" opacity="0.33"/><path d="M512.926-167.818l-.059,137.484H-65.986Z" transform="translate(1408.516 245.117)" fill="#ce1126" opacity="0.48"/><path d="M-250,286.933V74.567l626.777,97.567L315.33,286.9Z" transform="translate(250.051 -71.288)" fill="#002b7f"/><path d="M-140.7-302.907,59.655-89.434H-82.633Z" transform="translate(141.052 306.319)" fill="#fff" opacity="0.2"/><path d="M194.216-62.987,365.36,87.881H-200Z" transform="translate(200.051 127.609)" fill="#fff" opacity="0.1"/><path d="M-101.092-46.6h0L243,7.653,14.775,59.547Z" transform="translate(777.776 156.011)" fill="#fff" opacity="0.45"/><path d="M367.554-176.468l-80.343,75.759H60.381Z" transform="translate(505.122 316.126)" fill="#fff" opacity="0.18"/><path d="M20.245.487l161.9,34.805L-4.261,63.75Z" transform="translate(605.398 89.875)" fill="#fcd116" opacity="0"/></g></svg>