<?xml version="1.0" encoding="utf-8"?>
<svg id="master-artboard" viewBox="0 0 1400 1139.4095458984375" version="1.1" xmlns="http://www.w3.org/2000/svg" x="0px" y="0px" style="enable-background:new 0 0 1400 980;" width="1400px" height="1139.4095458984375px"><rect id="ee-background" x="0" y="0" width="1400" height="1139.4095458984375" style="fill: white; fill-opacity: 0; pointer-events: none;"/><defs><style id="ee-google-fonts">@import url(https://fonts.googleapis.com/css?family=Fjalla+One:400|Roboto:100,100italic,300,300italic,400,400italic,500,500italic,700,700italic,900,900italic);</style></defs>











































<g transform="matrix(1, 0, 0, 1, 1.8189894035458565e-12, 72.5883321762085)">
		<path class="st13" d="M448.4,599.9" style="fill: rgb(223, 243, 251);"/>
	</g>





















































<g transform="matrix(0.9999999403953552, 0, 0, 0.9999999403953552, 0.00010463168291607872, 72.5883321762085)"><g transform="matrix(0.9999999999999999, 0, 0, 0.9999999999999999, 1.8189894035458565e-12, 4.547473508864641e-13)">
		<path class="st13" d="M448.4,599.9" style="fill: rgb(223, 243, 251);"/>
	</g><g transform="matrix(7.903225806451613, 0, 0, 7.903225806451613, 209.99992965625188, -1.4210854715202004e-14)"><g>
	<path d="M112,6H12C5.4,6,0,11.4,0,18s5.4,12,12,12h100c6.6,0,12-5.4,12-12S118.6,6,112,6z" style="fill: rgb(227, 227, 227);"/>
	<path d="M112,50H12C5.4,50,0,55.4,0,62c0,6.6,5.4,12,12,12h100c6.6,0,12-5.4,12-12C124,55.4,118.6,50,112,50z" style="fill: rgb(227, 227, 227);"/>
	<path d="M112,94H12c-6.6,0-12,5.4-12,12s5.4,12,12,12h100c6.6,0,12-5.4,12-12S118.6,94,112,94z" style="fill: rgb(227, 227, 227);"/>
</g><g>
</g><g>
</g><g>
</g><g>
</g><g>
</g><g>
</g><g>
</g><g>
</g><g>
</g><g>
</g><g>
</g><g>
</g><g>
</g><g>
</g><g>
</g></g></g></svg>